<?xml version="1.0" encoding="UTF-8" standalone="no"?>
<!DOCTYPE svg PUBLIC "-//W3C//DTD SVG 1.1//EN"
 "http://www.w3.org/Graphics/SVG/1.1/DTD/svg11.dtd">
<!-- Generated by graphviz version 3.0.0 (20220226.1711)
 -->
<!-- Title: Graphtest Pages: 1 -->
<svg width="594pt" height="44pt"
 viewBox="0.00 0.00 594.00 44.00" xmlns="http://www.w3.org/2000/svg" xmlns:xlink="http://www.w3.org/1999/xlink">
<g id="graph0" class="graph" transform="scale(1 1) rotate(0) translate(4 40)">
<title>Graphtest</title>
<polygon fill="white" stroke="transparent" points="-4,4 -4,-40 590,-40 590,4 -4,4"/>
<!-- Orden0 -->
<g id="node1" class="node">
<title>Orden0</title>
<path fill="none" stroke="black" d="M42,-36C42,-36 12,-36 12,-36 6,-36 0,-30 0,-24 0,-24 0,-12 0,-12 0,-6 6,0 12,0 12,0 42,0 42,0 48,0 54,-6 54,-12 54,-12 54,-24 54,-24 54,-30 48,-36 42,-36"/>
<text text-anchor="middle" x="27" y="-14.5" font-family="arial" font-size="15.00">carne</text>
</g>
<!-- Tiempo0 -->
<g id="node2" class="node">
<title>Tiempo0</title>
<path fill="none" stroke="black" d="M114,-36C114,-36 84,-36 84,-36 78,-36 72,-30 72,-24 72,-24 72,-12 72,-12 72,-6 78,0 84,0 84,0 114,0 114,0 120,0 126,-6 126,-12 126,-12 126,-24 126,-24 126,-30 120,-36 114,-36"/>
<text text-anchor="middle" x="99" y="-14.5" font-family="arial" font-size="15.00">10</text>
</g>
<!-- Orden1 -->
<g id="node3" class="node">
<title>Orden1</title>
<path fill="none" stroke="black" d="M209.5,-36C209.5,-36 156.5,-36 156.5,-36 150.5,-36 144.5,-30 144.5,-24 144.5,-24 144.5,-12 144.5,-12 144.5,-6 150.5,0 156.5,0 156.5,0 209.5,0 209.5,0 215.5,0 221.5,-6 221.5,-12 221.5,-12 221.5,-24 221.5,-24 221.5,-30 215.5,-36 209.5,-36"/>
<text text-anchor="middle" x="183" y="-14.5" font-family="arial" font-size="15.00">salchicha</text>
</g>
<!-- Tiempo1 -->
<g id="node4" class="node">
<title>Tiempo1</title>
<path fill="none" stroke="black" d="M282,-36C282,-36 252,-36 252,-36 246,-36 240,-30 240,-24 240,-24 240,-12 240,-12 240,-6 246,0 252,0 252,0 282,0 282,0 288,0 294,-6 294,-12 294,-12 294,-24 294,-24 294,-30 288,-36 282,-36"/>
<text text-anchor="middle" x="267" y="-14.5" font-family="arial" font-size="15.00">4</text>
</g>
<!-- Orden2 -->
<g id="node5" class="node">
<title>Orden2</title>
<path fill="none" stroke="black" d="M356,-36C356,-36 324,-36 324,-36 318,-36 312,-30 312,-24 312,-24 312,-12 312,-12 312,-6 318,0 324,0 324,0 356,0 356,0 362,0 368,-6 368,-12 368,-12 368,-24 368,-24 368,-30 362,-36 356,-36"/>
<text text-anchor="middle" x="340" y="-14.5" font-family="arial" font-size="15.00">queso</text>
</g>
<!-- Tiempo2 -->
<g id="node6" class="node">
<title>Tiempo2</title>
<path fill="none" stroke="black" d="M428,-36C428,-36 398,-36 398,-36 392,-36 386,-30 386,-24 386,-24 386,-12 386,-12 386,-6 392,0 398,0 398,0 428,0 428,0 434,0 440,-6 440,-12 440,-12 440,-24 440,-24 440,-30 434,-36 428,-36"/>
<text text-anchor="middle" x="413" y="-14.5" font-family="arial" font-size="15.00">5</text>
</g>
<!-- Orden3 -->
<g id="node7" class="node">
<title>Orden3</title>
<path fill="none" stroke="black" d="M502,-36C502,-36 470,-36 470,-36 464,-36 458,-30 458,-24 458,-24 458,-12 458,-12 458,-6 464,0 470,0 470,0 502,0 502,0 508,0 514,-6 514,-12 514,-12 514,-24 514,-24 514,-30 508,-36 502,-36"/>
<text text-anchor="middle" x="486" y="-14.5" font-family="arial" font-size="15.00">queso</text>
</g>
<!-- Tiempo3 -->
<g id="node8" class="node">
<title>Tiempo3</title>
<path fill="none" stroke="black" d="M574,-36C574,-36 544,-36 544,-36 538,-36 532,-30 532,-24 532,-24 532,-12 532,-12 532,-6 538,0 544,0 544,0 574,0 574,0 580,0 586,-6 586,-12 586,-12 586,-24 586,-24 586,-30 580,-36 574,-36"/>
<text text-anchor="middle" x="559" y="-14.5" font-family="arial" font-size="15.00">5</text>
</g>
</g>
</svg>
